<svg xmlns="http://www.w3.org/2000/svg" xmlns:xlink="http://www.w3.org/1999/xlink" width="512" zoomAndPan="magnify" viewBox="0 0 384 383.999986" height="512" preserveAspectRatio="xMidYMid meet" version="1.0"><defs><clipPath id="d1c7da7fc8"><path d="M 48.238281 21.402344 L 340.621094 21.402344 L 340.621094 313.785156 L 48.238281 313.785156 Z M 48.238281 21.402344 " clip-rule="nonzero"/></clipPath><clipPath id="edccee4d66"><path d="M 194.429688 21.402344 C 113.6875 21.402344 48.238281 86.855469 48.238281 167.59375 C 48.238281 248.332031 113.6875 313.785156 194.429688 313.785156 C 275.167969 313.785156 340.621094 248.332031 340.621094 167.59375 C 340.621094 86.855469 275.167969 21.402344 194.429688 21.402344 Z M 194.429688 21.402344 " clip-rule="nonzero"/></clipPath><clipPath id="7441064bb6"><path d="M 9.664062 62.085938 L 379.1875 62.085938 L 379.1875 376.335938 L 9.664062 376.335938 Z M 9.664062 62.085938 " clip-rule="nonzero"/></clipPath><clipPath id="9db40d8ba2"><path d="M 194.425781 376.335938 L 9.664062 62.308594 L 379.1875 62.308594 Z M 194.425781 376.335938 " clip-rule="nonzero"/></clipPath></defs><rect x="-38.4" width="460.8" fill="#ffffff" y="-38.399999" height="460.799983" fill-opacity="1"/><rect x="-38.4" width="460.8" fill="#6b35aa" y="-38.399999" height="460.799983" fill-opacity="1"/><g clip-path="url(#d1c7da7fc8)"><g clip-path="url(#edccee4d66)"><path stroke-linecap="butt" transform="matrix(0.75, 0, 0, 0.75, 48.236478, 21.402744)" fill="none" stroke-linejoin="miter" d="M 194.924283 -0.000533967 C 87.268031 -0.000533967 0.00240462 87.270301 0.00240462 194.921344 C 0.00240462 302.572387 87.268031 389.843222 194.924283 389.843222 C 302.575326 389.843222 389.846161 302.572387 389.846161 194.921344 C 389.846161 87.270301 302.575326 -0.000533967 194.924283 -0.000533967 Z M 194.924283 -0.000533967 " stroke="#ffffff" stroke-width="36" stroke-opacity="1" stroke-miterlimit="4"/></g></g><g clip-path="url(#7441064bb6)"><g clip-path="url(#9db40d8ba2)"><path stroke-linecap="butt" transform="matrix(-0.75, 0, 0, -0.75, 379.18864, 376.336581)" fill="none" stroke-linejoin="miter" d="M 246.350497 0.000857476 L 492.699475 418.704016 L 0.00151944 418.704016 Z M 246.350497 0.000857476 " stroke="#ffffff" stroke-width="36" stroke-opacity="1" stroke-miterlimit="4"/></g></g></svg>